<?xml version="1.0" encoding="UTF-8"?>
<svg version="1.1" xmlns="http://www.w3.org/2000/svg" width="3917" height="2012">
<path d="M0 0 C1.69329473 0.03516556 3.38665991 0.06709533 5.08007812 0.09570312 C9.20097823 0.17230361 13.31845226 0.29278788 17.4375 0.4375 C13.70497446 4.21867455 9.90137466 7.63808656 5.75 10.9375 C4.77160156 11.71625488 4.77160156 11.71625488 3.7734375 12.51074219 C-4.14458667 18.75610246 -12.32636617 24.6216197 -20.5625 30.4375 C-21.48192383 31.08831543 -22.40134766 31.73913086 -23.34863281 32.40966797 C-34.49268417 40.28232862 -45.68866056 47.96870334 -57.34033203 55.06933594 C-59.89539703 56.642461 -62.43043885 58.24536743 -64.96484375 59.8515625 C-79.60796279 69.11676955 -94.48538897 77.89873463 -109.5625 86.4375 C-110.6055127 87.02917969 -111.64852539 87.62085937 -112.72314453 88.23046875 C-160.07488977 115.04758467 -208.59784621 140.2266675 -258.1015625 162.84375 C-261.78661988 164.54070645 -265.45760562 166.26531086 -269.125 168 C-287.67838747 176.77124166 -306.36129072 185.2116228 -325.14111328 193.48632812 C-329.34711404 195.34055566 -333.54705374 197.20820147 -337.74609375 199.078125 C-388.22483492 221.53081069 -439.30515333 242.61478301 -490.55822754 263.2286377 C-493.73689318 264.50767251 -496.91487198 265.78840366 -500.09277344 267.06933594 C-527.79756063 278.23263943 -555.55803889 289.20341042 -583.50111389 299.7559967 C-590.6253655 302.45102064 -597.71897064 305.22100695 -604.80966187 308.00283813 C-650.14512768 325.77542326 -695.84173569 342.68589708 -741.5625 359.4375 C-742.72551636 359.86377686 -743.88853271 360.29005371 -745.08679199 360.72924805 C-780.47409921 373.69783593 -815.89108653 386.58224925 -851.371521 399.29418945 C-854.67442789 400.47760316 -857.97710908 401.66164542 -861.27978516 402.84570312 C-895.66310436 415.16942486 -930.09418201 427.35367842 -964.5625 439.4375 C-966.41064539 440.08560953 -968.25878996 440.73372141 -970.10693359 441.38183594 C-980.77734449 445.12311712 -991.45051256 448.85647165 -1002.12512207 452.58575439 C-1004.60146591 453.4511167 -1007.07761577 454.31703193 -1009.55371094 455.18310547 C-1039.89453683 465.79487014 -1070.26894896 476.30854651 -1100.65805817 486.78118896 C-1102.58917253 487.44669192 -1104.52026396 488.11226135 -1106.45135498 488.77783203 C-1141.16538832 500.74167576 -1175.90248585 512.63420274 -1210.67687988 524.42167664 C-1219.42350707 527.38769914 -1228.16354995 530.37274762 -1236.90197754 533.36282349 C-1260.09613858 541.29789987 -1283.31572286 549.1579017 -1306.53898621 557.00730896 C-1307.29129401 557.26158814 -1308.04360182 557.51586732 -1308.81870683 557.77785193 C-1309.97903579 558.17004081 -1309.97903579 558.17004081 -1311.16280574 558.5701527 C-1312.33979416 558.96797445 -1312.33979416 558.96797445 -1313.54056012 559.37383301 C-1315.14823547 559.91722655 -1316.75591294 560.46061383 -1318.36359248 561.00399496 C-1323.00865031 562.57404605 -1327.65352564 564.14463537 -1332.29821696 565.71577037 C-1395.04427881 586.94043281 -1457.87041539 607.92364276 -1520.71128581 628.86552858 C-1530.62208966 632.16834585 -1540.53268112 635.47179979 -1550.44314003 638.77565193 C-1551.15882012 639.01423742 -1551.8745002 639.25282291 -1552.61186757 639.49863827 C-1555.51983923 640.468066 -1558.42781021 641.4374958 -1561.33578005 642.40692902 C-1588.31665803 651.40156275 -1615.29810626 660.39448471 -1642.27983029 669.38658013 C-1666.09988725 677.32501111 -1689.91942075 685.2650109 -1713.73852539 693.20629883 C-1740.74930602 702.21168549 -1767.76041564 711.21608432 -1794.7720421 720.21893364 C-1797.66000798 721.18148208 -1800.54797309 722.14403284 -1803.43593788 723.10658455 C-1804.14659366 723.34344345 -1804.85724944 723.58030235 -1805.58944025 723.8243388 C-1816.19878358 727.36041153 -1826.80788482 730.89720993 -1837.41686058 734.4343853 C-1849.47724806 738.45547629 -1861.53800326 742.47546231 -1873.59921613 746.4940769 C-1879.72372412 748.53470015 -1885.84807568 750.57579014 -1891.97198296 752.61821556 C-1918.87915274 761.59180829 -1945.80941783 770.4865333 -1972.79068598 779.23493205 C-1985.15253512 783.24714493 -1997.48247922 787.3560734 -2009.8125 791.46484375 C-2011.12258351 791.90105915 -2012.43268316 792.3372261 -2013.74279785 792.77334785 C-2020.58813737 795.05209842 -2027.43299318 797.33229451 -2034.27734375 799.61401367 C-2039.80004693 801.45509267 -2045.32350918 803.29387328 -2050.84765625 805.13061523 C-2082.0855766 815.51761044 -2113.28308248 825.9980218 -2144.32965088 836.94711304 C-2149.12648218 838.63798711 -2153.93018157 840.30886983 -2158.7348938 841.97720337 C-2193.90500157 854.19458107 -2228.75369422 867.23443815 -2263.5625 880.4375 C-2265.50552236 881.1733702 -2267.44855521 881.90921268 -2269.39160156 882.64501953 C-2307.80718192 897.20704023 -2346.02996049 912.32212969 -2383.68798828 928.75097656 C-2387.44092902 930.38723762 -2391.20202599 932.00376344 -2394.96484375 933.6171875 C-2424.1296737 946.14149412 -2453.11880565 959.07049346 -2481.63476562 973.01416016 C-2485.30077031 974.7964156 -2488.98471453 976.53915198 -2492.66992188 978.28125 C-2517.07108454 989.8387682 -2541.31642229 1001.82699509 -2564.90283203 1014.97314453 C-2567.82550786 1016.58230642 -2570.76734929 1018.15161983 -2573.71484375 1019.71484375 C-2588.52855274 1027.57709255 -2603.00178505 1035.89898768 -2617.37744141 1044.53417969 C-2620.39119393 1046.3351313 -2623.41642598 1048.11415386 -2626.44921875 1049.8828125 C-2638.7324943 1057.04921359 -2650.71168738 1064.57837053 -2662.5625 1072.4375 C-2664.30072258 1073.58342233 -2666.03900464 1074.72925445 -2667.77734375 1075.875 C-2687.22781221 1088.73099114 -2706.14061353 1102.14333913 -2724.5625 1116.4375 C-2725.25666016 1116.97568359 -2725.95082031 1117.51386719 -2726.66601562 1118.06835938 C-2749.19863325 1135.573599 -2770.40966716 1154.24203464 -2790.625 1174.375 C-2791.80304199 1175.54603271 -2791.80304199 1175.54603271 -2793.00488281 1176.74072266 C-2797.7293 1181.47829133 -2802.21407426 1186.35422508 -2806.5625 1191.4375 C-2807.84833984 1192.90123047 -2807.84833984 1192.90123047 -2809.16015625 1194.39453125 C-2848.78946256 1240.30423475 -2877.38887419 1296.54091822 -2874.5625 1358.4375 C-2870.81717398 1408.69357494 -2847.17535161 1454.04225477 -2815.5625 1492.4375 C-2815.11165039 1492.98599609 -2814.66080078 1493.53449219 -2814.19628906 1494.09960938 C-2808.05122539 1501.53997746 -2801.66222835 1508.73772123 -2795.08398438 1515.79833984 C-2793.41748402 1517.59373191 -2791.76329925 1519.40005047 -2790.109375 1521.20703125 C-2784.38094436 1527.44100329 -2778.64453264 1533.50274216 -2772.25 1539.06640625 C-2769.47132917 1541.51793706 -2766.77718618 1544.04294391 -2764.08422852 1546.58764648 C-2758.39410149 1551.96011907 -2752.65508301 1557.16956187 -2746.53515625 1562.0546875 C-2744.27006445 1563.8703327 -2742.03349443 1565.70649223 -2739.80859375 1567.5703125 C-2729.01642535 1576.59483137 -2717.90016719 1585.11104875 -2706.5625 1593.4375 C-2705.40766113 1594.28658936 -2705.40766113 1594.28658936 -2704.22949219 1595.15283203 C-2648.45799602 1636.05112894 -2588.45440376 1670.75157841 -2527.12109375 1702.546875 C-2523.60269104 1704.37136693 -2520.09477447 1706.21318057 -2516.59765625 1708.078125 C-2486.96226547 1723.82522782 -2456.61833611 1738.29699785 -2425.98840332 1751.99710083 C-2421.01299435 1754.22542806 -2416.06779231 1756.51451971 -2411.12792969 1758.8203125 C-2378.0074876 1774.26737437 -2344.33027467 1788.47620818 -2310.5625 1802.4375 C-2309.69423584 1802.79696716 -2308.82597168 1803.15643433 -2307.93139648 1803.52679443 C-2248.54830212 1828.110462 -2188.63252989 1851.37464358 -2128.57977295 1874.26501465 C-2091.47761233 1888.40842427 -2054.45892721 1902.76548822 -2017.5625 1917.4375 C-2016.54931702 1917.84011047 -2015.53613403 1918.24272095 -2014.49224854 1918.65753174 C-1933.53510643 1950.8303708 -1933.53510643 1950.8303708 -1895.72314453 1968.00585938 C-1878.56423081 1975.77813421 -1861.19677732 1982.81479713 -1843.5625 1989.4375 C-1845.15730331 1994.86641745 -1846.77715187 2000.25621881 -1848.75 2005.5625 C-1849.09417969 2006.49320313 -1849.43835937 2007.42390625 -1849.79296875 2008.3828125 C-1850.17388672 2009.39988281 -1850.17388672 2009.39988281 -1850.5625 2010.4375 C-1858.23155229 2007.95246374 -1865.78486929 2005.19616452 -1873.3125 2002.3125 C-1874.31074799 2001.93017715 -1874.31074799 2001.93017715 -1875.3291626 2001.54013062 C-1886.57481081 1997.20621171 -1897.52212735 1992.35214168 -1908.4375 1987.25 C-1980.55812492 1953.62922765 -2056.09806551 1926.32446588 -2130.39866638 1897.94096375 C-2227.32326319 1860.90594228 -2323.91933989 1823.03057042 -2484.70379639 1749.29420471 C-2489.2563151 1747.0687772 -2493.81995619 1744.86757333 -2498.390625 1742.6796875 C-2510.29472892 1736.97844367 -2522.14430013 1731.21782271 -2533.78125 1724.984375 C-2537.32654454 1723.08532504 -2540.89184722 1721.2294553 -2544.46875 1719.390625 C-2556.67697204 1713.11181241 -2568.71930098 1706.61884204 -2580.63671875 1699.8046875 C-2584.7440099 1697.45903973 -2588.87219329 1695.15690012 -2593.01953125 1692.8828125 C-2608.35779633 1684.47002348 -2623.38256214 1675.66619289 -2638.26220703 1666.47363281 C-2641.32393603 1664.58468327 -2644.39340172 1662.70903406 -2647.46484375 1660.8359375 C-2671.46546498 1646.11130387 -2695.02682012 1630.32513981 -2717.5625 1613.4375 C-2718.38959473 1612.81858887 -2719.21668945 1612.19967773 -2720.06884766 1611.56201172 C-2731.19039725 1603.21525519 -2742.1346261 1594.68049845 -2752.86230469 1585.83349609 C-2754.42322502 1584.55185588 -2755.99620991 1583.28494619 -2757.5703125 1582.01953125 C-2763.52079106 1577.23032842 -2769.17818378 1572.2007212 -2774.7734375 1567.0078125 C-2777.1075955 1564.85672571 -2779.46996617 1562.75824342 -2781.875 1560.6875 C-2785.0039666 1557.97787944 -2787.91220228 1555.11095808 -2790.80859375 1552.15625 C-2792.51577361 1550.48328978 -2794.28842833 1548.96602674 -2796.125 1547.4375 C-2802.17426288 1542.22059694 -2807.44535255 1536.19607417 -2812.8359375 1530.31689453 C-2814.41443435 1528.59867214 -2816.00179359 1526.88933694 -2817.59375 1525.18359375 C-2833.75495081 1507.82071278 -2848.24501247 1488.7134448 -2860.5625 1468.4375 C-2860.94035645 1467.81552734 -2861.31821289 1467.19355469 -2861.70751953 1466.55273438 C-2883.41288304 1430.34845565 -2897.04791402 1390.54638746 -2896.9375 1348.125 C-2896.93662384 1347.29667664 -2896.93574768 1346.46835327 -2896.93484497 1345.6149292 C-2896.80754854 1308.90862794 -2886.73920953 1274.7347176 -2869.5625 1242.4375 C-2869.01021729 1241.38296631 -2869.01021729 1241.38296631 -2868.44677734 1240.30712891 C-2856.78737702 1218.13798559 -2841.88032409 1198.36111616 -2825.5625 1179.4375 C-2824.94761719 1178.72078125 -2824.33273437 1178.0040625 -2823.69921875 1177.265625 C-2822.00386634 1175.30727042 -2820.287495 1173.36979053 -2818.5625 1171.4375 C-2817.85867188 1170.64085937 -2817.15484375 1169.84421875 -2816.4296875 1169.0234375 C-2810.12682267 1162.00927758 -2803.5330417 1155.30213742 -2796.875 1148.625 C-2795.98409668 1147.72950439 -2795.09319336 1146.83400879 -2794.17529297 1145.91137695 C-2789.13062233 1140.8784381 -2783.97105563 1136.07439301 -2778.5625 1131.4375 C-2776.95481627 1129.98304483 -2775.35010285 1128.52529105 -2773.75 1127.0625 C-2769.48369411 1123.21699818 -2765.110807 1119.54018734 -2760.64453125 1115.9296875 C-2758.42330631 1114.13356391 -2756.21349623 1112.32741464 -2754.01171875 1110.5078125 C-2743.44869542 1101.80535242 -2732.57671123 1093.55889072 -2721.5625 1085.4375 C-2720.81774414 1084.88594238 -2720.07298828 1084.33438477 -2719.30566406 1083.76611328 C-2706.36255159 1074.19984431 -2693.01307538 1065.27138404 -2679.5625 1056.4375 C-2678.77456055 1055.91913574 -2677.98662109 1055.40077148 -2677.17480469 1054.86669922 C-2629.50030166 1023.56364186 -2579.35160736 996.29808757 -2528.5625 970.4375 C-2527.93563293 970.1180542 -2527.30876587 969.7986084 -2526.66290283 969.46948242 C-2509.94155827 960.95317918 -2493.06119659 952.84810006 -2476.00537109 945.02441406 C-2472.66957601 943.48685428 -2469.34311942 941.93093549 -2466.01953125 940.3671875 C-2400.19223479 909.43758287 -2332.59175792 882.10771138 -2264.5625 856.4375 C-2263.74271667 856.12806458 -2262.92293335 855.81862915 -2262.07830811 855.49981689 C-2202.91268441 833.18614424 -2143.22263546 812.40129124 -2083.32742691 792.14224243 C-2080.9493293 791.33764822 -2078.57148407 790.53231232 -2076.19369507 789.72680664 C-2058.84206464 783.8509484 -2041.46418111 778.0639213 -2024.04097104 772.4037025 C-1993.43113479 762.4520874 -1962.90298065 752.25644838 -1932.37250914 742.06476173 C-1924.36070767 739.39037162 -1916.34820074 736.71809783 -1908.33564793 734.04595979 C-1894.00205246 729.26576421 -1879.66883215 724.48444491 -1865.3359375 719.70214844 C-1864.48671384 719.41879795 -1863.63749017 719.13544745 -1862.76253246 718.84351058 C-1856.73751148 716.83320416 -1850.71250434 714.82285628 -1844.6875 712.8125 C-1837.79395528 710.51233992 -1830.90040369 708.21220042 -1824.00683594 705.91210938 C-1823.15688404 705.62851603 -1822.30693214 705.34492269 -1821.43122412 705.05273561 C-1807.12726594 700.28014658 -1792.82289587 695.50879319 -1778.51824653 690.73827612 C-1770.54996868 688.08084381 -1762.58190225 685.42278103 -1754.6143837 682.76307297 C-1725.81793393 673.15043471 -1697.02267885 663.53867115 -1668.14355087 654.17648125 C-1651.14403562 648.66458511 -1634.18673408 643.02817934 -1617.23445463 637.37292671 C-1612.85392838 635.91187583 -1608.47289287 634.45235317 -1604.09194946 632.99255371 C-1596.75267377 630.54672603 -1589.41380822 628.09967103 -1582.07519531 625.65185547 C-1573.72159449 622.86550834 -1565.36727469 620.08132545 -1557.01258028 617.29825926 C-1549.69525806 614.86068898 -1542.37834442 612.42189514 -1535.06174147 609.98216677 C-1530.7548482 608.54602928 -1526.44784038 607.11023881 -1522.14045334 605.67558289 C-1502.05132468 598.98381624 -1481.99200934 592.21062145 -1461.95830345 585.35466766 C-1449.85314936 581.21294873 -1437.73372382 577.11831349 -1425.59075928 573.08853149 C-1422.49241308 572.0602547 -1419.3948286 571.02970639 -1416.29736328 569.9987793 C-1408.62273993 567.44488306 -1400.94698738 564.8943883 -1393.27124023 562.34387207 C-1368.63552706 554.15726603 -1344.01080863 545.94546271 -1319.45223999 537.52989197 C-1307.61806115 533.47517937 -1295.77078487 529.46095679 -1283.9140625 525.47265625 C-1283.06580021 525.18724472 -1282.21753792 524.90183319 -1281.34357071 524.60777283 C-1277.91409539 523.45387804 -1274.48456706 522.30014098 -1271.05495644 521.14664841 C-1233.75298123 508.61566866 -1233.75298123 508.61566866 -1196.57281494 495.72927856 C-1180.50024943 490.06804374 -1164.36036389 484.61119919 -1148.21450424 479.16358948 C-1127.6465176 472.22391976 -1107.09684324 465.24235416 -1086.61401367 458.05419922 C-1084.91457963 457.4579256 -1083.2151164 456.86173512 -1081.515625 456.265625 C-1080.66293533 455.96653229 -1079.81024567 455.66743958 -1078.93171692 455.35928345 C-1067.84841903 451.47818069 -1056.73890093 447.67297128 -1045.63372803 443.8550415 C-1024.61206798 436.62616836 -1003.6225283 429.31578395 -982.67773438 421.8671875 C-968.46788806 416.81430507 -954.24017312 411.81423153 -940.0050354 406.83306885 C-912.65073609 397.25863865 -885.35488026 387.52836245 -858.08837891 377.70697021 C-854.42780155 376.38900268 -850.76672279 375.07243382 -847.10546875 373.75634766 C-812.87491154 361.45099493 -778.67896277 349.05642045 -744.5625 336.4375 C-743.24723694 335.95118176 -741.93196987 335.46487437 -740.61669922 334.97857666 C-686.46900944 314.9565861 -632.45299038 294.62054991 -578.66540527 273.64715576 C-575.54190648 272.4294717 -572.41795844 271.21294587 -569.29394531 269.99658203 C-489.35268442 238.85867376 -409.95926976 206.29435632 -331.5625 171.4375 C-330.73357239 171.06923096 -329.90464478 170.70096191 -329.05059814 170.3215332 C-304.393066 159.36263003 -279.89901064 148.09179326 -255.5625 136.4375 C-254.2309595 135.80093885 -252.89941658 135.16438275 -251.56787109 134.52783203 C-234.64367099 126.42862932 -217.82107569 118.12381465 -201.02746582 109.75759888 C-198.96826804 108.73200675 -196.90847875 107.70760117 -194.84802246 106.68453979 C-181.35071887 99.97802014 -168.05005118 92.98181616 -154.85519409 85.69873047 C-151.91715151 84.08248832 -148.96511014 82.49479199 -146.0078125 80.9140625 C-131.99694724 73.41187177 -118.23104226 65.54531829 -104.5625 57.4375 C-103.67546387 56.91269043 -102.78842773 56.38788086 -101.87451172 55.84716797 C-79.15624812 42.3887644 -56.91382952 28.19320999 -35.3125 13 C-34.65813965 12.54044922 -34.0037793 12.08089844 -33.32958984 11.60742188 C-32.70004395 11.16076172 -32.07049805 10.71410156 -31.421875 10.25390625 C-30.7837085 9.81135498 -30.14554199 9.36880371 -29.48803711 8.9128418 C-27.49612549 7.46130038 -27.49612549 7.46130038 -25.73266602 5.55004883 C-18.30384831 -1.64960227 -9.66929004 -0.34994699 0 0 Z " fill="#E64A3B" transform="translate(3812.5625,-0.4375)"/>
</svg>
