<?xml version="1.0" encoding="UTF-8"?>
<svg version="1.1" xmlns="http://www.w3.org/2000/svg" width="3917" height="1380">
<path d="M0 0 C3.39743025 1.51866698 6.01618284 3.50279002 8.875 5.875 C10.33099609 7.0815625 10.33099609 7.0815625 11.81640625 8.3125 C14.58505262 10.63854257 17.32427091 12.99761308 20.06054688 15.36157227 C25.8023099 20.32160417 31.61963469 25.1337489 37.61303711 29.78686523 C42.09212092 33.26797665 46.48940714 36.83961071 50.875 40.4375 C56.758129 45.24942343 62.75011642 49.8784318 68.85449219 54.40551758 C74.00816637 58.23311851 79.07365179 62.16364019 84.125 66.125 C91.00279276 71.50451538 97.99747244 76.65856683 105.13818359 81.68115234 C108.71732936 84.21649793 112.26133766 86.80069094 115.8125 89.375 C121.72920363 93.65459406 127.661976 97.91015501 133.625 102.125 C134.23190674 102.55474121 134.83881348 102.98448242 135.46411133 103.42724609 C148.31689462 112.48786813 161.34600852 121.28921816 174.4375 130 C175.15778381 130.47967224 175.87806763 130.95934448 176.62017822 131.45355225 C187.0283634 138.3836014 197.45290114 145.28258261 208 152 C208.68433105 152.43828125 209.36866211 152.8765625 210.07373047 153.328125 C282.30144576 199.56425292 357.8755904 240.36458778 466.59326172 293.43115234 C470.20048868 295.09232766 473.79154237 296.78478427 477.37890625 298.48828125 C564.13897012 339.65018681 654.0272486 374.9060693 766.11437988 414.00775146 C769.11199589 415.03851087 772.10834706 416.07288358 775.10449219 417.10791016 C809.55323673 428.99996634 844.18993835 440.21341106 879 451 C880.03104858 451.31990906 881.06209717 451.63981812 882.12438965 451.96942139 C958.7630074 475.73752544 1036.17752475 496.89022931 1113.97834015 516.49042511 C1115.94810788 516.98692019 1117.91766315 517.48424872 1119.887146 517.98187256 C1191.19722432 535.99014366 1262.98261749 552.08659086 1335 567 C1336.3613784 567.28204411 1336.3613784 567.28204411 1337.7502594 567.56978607 C1438.69064732 588.47381538 1540.0176555 607.19306414 1847 656 C1848.12457108 656.16535248 1849.24914215 656.33070496 1850.40779114 656.50106812 C1938.93168982 669.51557735 2027.60311513 681.45716935 2444.26812148 733.78351188 C2613.66372413 754.51411609 2613.66372413 754.51411609 3063 817 C3064.38796154 817.22498421 3064.38796154 817.22498421 3065.80396271 817.45451355 C3116.96707287 825.75380749 3168.06766865 834.37859163 3219 844 C3219.70023537 844.13215912 3220.40047073 844.26431824 3221.12192535 844.40048218 C3300.69718391 859.42364288 3379.80771624 876.26377321 3798 1018 C3798.81001465 1018.4753418 3799.6200293 1018.95068359 3800.45458984 1019.44042969 C3821.96641963 1032.109049 3841.97412394 1046.71751845 3860 1064 C3860.9590625 1064.90621094 3861.918125 1065.81242187 3862.90625 1066.74609375 C3885.04321824 1088.1679633 3901.38896426 1117.06024965 3902.33642578 1148.31176758 C3902.7928144 1180.11743245 3889.64547967 1209.45059188 3870 1234 C3868.824375 1235.49080078 3868.824375 1235.49080078 3867.625 1237.01171875 C3859.68296542 1246.89789721 3851.0608867 1256.12590281 3842.09863281 1265.08666992 C3840.6279359 1266.55955972 3839.16546466 1268.04030265 3837.703125 1269.52148438 C3831.46981458 1275.7912408 3824.91521847 1281.48676142 3818 1287 C3816.92198841 1287.91176077 3815.84907645 1288.82964738 3814.78515625 1289.7578125 C3777.24824989 1322.3939176 3733.49534214 1348.44005156 3690.49121094 1373.10131836 C3689.43063477 1373.70983643 3688.37005859 1374.31835449 3687.27734375 1374.9453125 C3685.85796509 1375.75766357 3685.85796509 1375.75766357 3684.40991211 1376.58642578 C3682.57068556 1377.66525485 3680.77416585 1378.81722277 3679 1380 C3676.89289856 1380.24050903 3676.89289856 1380.24050903 3674.43676758 1380.22705078 C3673.05567558 1380.22682419 3673.05567558 1380.22682419 3671.64668274 1380.22659302 C3670.65597275 1380.21627045 3669.66526276 1380.20594788 3668.64453125 1380.1953125 C3667.62775803 1380.1924826 3666.6109848 1380.18965271 3665.56340027 1380.18673706 C3662.31298092 1380.17553383 3659.06283619 1380.15042886 3655.8125 1380.125 C3653.61003002 1380.11497039 3651.40755572 1380.10584451 3649.20507812 1380.09765625 C3643.80329157 1380.07559405 3638.40166541 1380.04211508 3633 1380 C3635.80885202 1377.79494629 3638.64184451 1376.02374766 3641.796875 1374.35546875 C3642.74369141 1373.85047852 3643.69050781 1373.34548828 3644.66601562 1372.82519531 C3645.68373047 1372.28475586 3646.70144531 1371.74431641 3647.75 1371.1875 C3657.47365192 1365.97649847 3667.04433776 1360.5499401 3676.55102539 1354.95410156 C3682.06038145 1351.71165137 3687.59289948 1348.53010481 3693.1875 1345.4375 C3703.00326589 1339.97330151 3712.49864681 1333.98911785 3722 1328 C3723.02432129 1327.35546875 3724.04864258 1326.7109375 3725.10400391 1326.046875 C3738.32722298 1317.70940007 3751.36938761 1309.21281382 3764 1300 C3764.77037598 1299.44070801 3765.54075195 1298.88141602 3766.33447266 1298.30517578 C3797.62069002 1275.56353994 3830.27780247 1250.66522461 3853 1219 C3853.391875 1218.46358887 3853.78375 1217.92717773 3854.1875 1217.37451172 C3862.27361629 1206.28602577 3869.08788196 1195.10228897 3873.875 1182.25 C3874.30449951 1181.09830322 3874.30449951 1181.09830322 3874.74267578 1179.92333984 C3881.82752214 1160.00652882 3880.98280477 1138.6773671 3872.6875 1119.3125 C3871.81686418 1117.52914324 3870.92035513 1115.75821344 3870 1114 C3869.50886719 1113.05898437 3869.01773438 1112.11796875 3868.51171875 1111.1484375 C3847.66837061 1073.44137809 3807.95330765 1048.7852619 3771 1029 C3769.72527832 1028.31236572 3769.72527832 1028.31236572 3768.42480469 1027.61083984 C3683.45210097 981.90746535 3588.67973233 954.12647672 3449 917 C3447.90894958 916.72305298 3446.81789917 916.44610596 3445.69378662 916.1607666 C3405.31223624 905.91911716 3364.73338087 896.71636515 3324 888 C3323.00721291 887.78732357 3323.00721291 887.78732357 3321.99436951 887.57035065 C3237.20545092 869.41000862 3151.78229254 854.34944436 2422.73828125 753.84765625 C2421.4855804 753.69399369 2420.23287955 753.54033113 2418.94221807 753.38201213 C2412.58275858 752.60193434 2406.22329636 751.82187882 2399.86383343 751.04182911 C2198.05440157 726.28779451 2198.05440157 726.28779451 1650.9129715 648.47755432 C1648.09115521 648.01494404 1645.26920396 647.55316681 1642.44720459 647.0916748 C1544.58601827 631.08258957 1447.01196143 613.18668092 893 479 C892.00899292 478.69767456 891.01798584 478.39534912 889.99694824 478.0838623 C875.97345256 473.80009735 861.97839031 469.42859376 848 465 C846.92876892 464.660755 845.85753784 464.32151001 844.75384521 463.97198486 C794.88805196 448.16805332 745.46294922 431.40328273 696.36962891 413.33984375 C691.56171126 411.57142253 686.74914191 409.81637727 681.93334961 408.0695343 C598.40075531 377.74052596 516.33002134 342.77059315 436.3515625 304.06640625 C432.37422063 302.14236862 428.3914142 300.23121639 424.3984375 298.33984375 C401.57854544 287.52644955 378.89857739 276.33284897 356.63671875 264.40820312 C354.05100623 263.02724111 351.4606897 261.65517204 348.86915588 260.28517151 C333.72918466 252.280071 318.71285 244.10363916 303.83935547 235.61083984 C300.89263246 233.93908762 297.93475394 232.28887705 294.97265625 230.64453125 C280.52661131 222.62401419 266.26655018 214.32970484 252.08886719 205.84716797 C249.29389786 204.17575334 246.49538583 202.51050026 243.6953125 200.84765625 C192.96250526 170.65647549 143.68471597 137.7991731 96 103 C95.22269531 102.4328125 94.44539063 101.865625 93.64453125 101.28125 C82.31511682 93.00135169 71.10582607 84.57717715 60 76 C58.89591797 75.14921875 58.89591797 75.14921875 57.76953125 74.28125 C49.00875035 67.52594906 40.32394943 60.69162625 31.76196289 53.68579102 C27.51040377 50.21061739 23.21108109 46.80636222 18.875 43.4375 C13.47192623 39.23016961 8.24634763 34.84763476 3.06933594 30.3659668 C-2.20222981 25.8040349 -7.57766292 21.38213364 -13 17 C-11.2703384 12.79046213 -8.31793255 9.64856424 -5.375 6.25 C-4.859375 5.64800781 -4.34375 5.04601562 -3.8125 4.42578125 C-2.54530865 2.94739134 -1.27314225 1.47326829 0 0 Z " fill="#E64A3B" transform="translate(14,0)"/>
</svg>
